<svg xmlns="http://www.w3.org/2000/svg" width="500" height="500" viewBox="0 0 500 500">
<g>
<path d="M 257.90 458.79 C149.33,458.90 57.12,459.27 52.99,459.61 C45.83,460.19 45.37,460.10 42.85,457.57 L 40.20 454.93 L 40.11 250.26 L 40.01 45.60 L 42.59 42.91 L 45.16 40.22 L 250.33 40.52 L 455.50 40.82 L 457.50 43.48 C459.49,46.13 459.50,47.52 459.27,250.82 C459.05,449.39 458.99,455.55 457.17,457.04 C455.51,458.41 433.81,458.60 257.90,458.79 ZM 456.69 456.65 C457.22,456.12 457.75,49.74 457.23,46.25 L 456.74 43.00 L 43.00 43.00 L 43.00 456.86 L 45.25 457.18 C48.16,457.59 456.27,457.06 456.69,456.65 ZM 391.50 217.00 L 391.26 161.25 C391.13,130.59 391.01,104.68 391.01,103.68 C391.00,102.31 390.26,101.98 381.29,102.06 L 393.00 101.86 L 393.00 217.00 L 391.50 217.00 ZM 251.50 271.00 L 251.16 254.52 C250.98,245.46 251.26,236.01 251.79,233.52 L 252.76 229.00 L 253.00 229.00 L 253.00 271.00 L 251.50 271.00 ZM 336.21 223.22 C336.42,220.69 336.76,218.64 337.20,218.20 C338.04,217.36 343.69,217.00 356.20,217.00 L 374.00 217.00 L 374.00 220.24 L 369.56 219.12 C367.11,218.50 359.67,218.00 353.02,218.00 C340.22,218.00 336.96,218.52 336.21,223.22 ZM 336.67 235.33 C336.08,234.75 335.90,230.95 336.00,227.07 C336.01,231.96 336.31,232.69 338.75,234.18 C340.26,235.11 342.40,235.65 343.50,235.39 C349.05,234.05 357.58,233.85 363.05,234.93 C368.31,235.96 369.49,235.91 371.58,234.54 C373.72,233.14 374.00,232.22 374.00,226.60 L 374.00 236.00 L 355.67 236.00 C345.58,236.00 337.03,235.70 336.67,235.33 ZM 393.70 369.93 L 393.77 374.50 L 412.50 375.50 L 412.50 377.67 C412.18,377.07 411.65,376.87 410.80,376.64 C407.14,375.66 399.91,375.90 396.57,377.11 C394.42,377.89 393.77,378.22 393.50,380.78 L 393.50 375.50 L 384.01 375.00 C383.97,375.00 383.93,375.00 383.89,374.99 C390.60,374.91 392.96,374.02 393.70,369.93 ZM 367.06 355.86 C370.90,355.87 372.67,355.54 373.15,354.79 C373.60,354.08 373.98,349.80 373.98,345.29 L 374.00 337.07 L 374.00 346.07 C374.00,352.42 374.37,355.21 375.27,355.55 C375.89,355.79 379.46,356.07 383.53,356.22 C381.68,356.35 379.74,356.85 377.67,357.74 L 374.08 359.28 L 374.00 356.08 L 367.06 355.86 ZM 401.00 392.90 C402.63,393.15 404.50,393.37 406.13,393.50 L 393.50 393.50 L 393.50 390.50 C393.67,391.36 393.93,391.79 394.29,391.85 C394.96,391.95 397.98,392.42 401.00,392.90 ZM 87.00 107.00 C86.79,107.00 86.60,117.37 86.45,134.17 L 86.50 104.50 L 95.23 104.50 C89.45,104.71 88.00,105.03 88.00,105.50 C88.00,106.32 87.55,107.00 87.00,107.00 ZM 386.11 356.30 L 393.50 356.50 L 393.55 360.08 C393.13,359.08 392.32,358.59 390.75,357.79 C389.21,357.00 387.68,356.50 386.11,356.30 ZM 104.94 395.71 C123.72,395.88 155.15,396.00 190.47,396.00 C146.84,396.00 120.29,395.93 104.94,395.71 ZM 374.80 373.64 C374.54,373.35 374.46,372.98 374.44,372.50 C374.39,371.58 374.30,368.55 374.22,365.27 L 374.33 366.94 C374.51,369.75 374.69,372.26 374.80,373.64 ZM 86.46 394.75 C86.39,394.56 86.33,389.32 86.28,380.14 C86.37,388.11 86.47,393.32 86.59,394.86 C86.52,394.82 86.48,394.79 86.46,394.75 Z" fill="rgba(52,255,15,1)"/>
<path d="M 0.00 0.00 L 500.00 0.00 L 500.00 500.00 L 0.00 500.00 L 0.00 0.00 ZM 257.90 458.79 C433.81,458.60 455.51,458.41 457.17,457.04 C458.99,455.55 459.05,449.39 459.27,250.82 C459.50,47.52 459.49,46.13 457.50,43.48 L 455.50 40.82 L 250.33 40.52 L 45.16 40.22 L 42.59 42.91 L 40.01 45.60 L 40.11 250.26 L 40.20 454.93 L 42.85 457.57 C45.37,460.10 45.83,460.19 52.99,459.61 C57.12,459.27 149.33,458.90 257.90,458.79 ZM 86.67 395.33 C86.07,394.74 85.88,315.17 86.00,239.77 C86.00,243.60 86.00,247.51 86.00,251.50 C86.00,346.32 86.34,393.91 87.00,393.50 C88.38,392.64 88.38,110.36 87.00,109.50 C86.91,109.45 86.83,110.23 86.75,111.86 C86.83,108.71 86.91,107.00 87.00,107.00 C87.55,107.00 88.00,106.32 88.00,105.50 C88.00,105.23 88.48,105.01 90.00,104.83 C90.00,104.83 90.00,104.83 90.00,104.83 C90.00,105.29 90.34,106.03 90.75,106.47 C91.16,106.91 112.20,106.96 137.50,106.58 C162.80,106.20 199.25,106.00 218.50,106.13 C237.75,106.26 255.07,106.33 257.00,106.27 C258.92,106.21 267.61,105.95 276.30,105.70 C284.99,105.44 292.38,104.96 292.72,104.62 C292.76,104.57 292.05,104.53 290.66,104.49 L 294.50 104.50 L 294.50 119.30 L 294.27 129.23 L 293.94 142.96 L 211.36 142.99 C165.94,143.01 128.37,143.27 127.89,143.57 C127.40,143.87 127.00,144.65 127.00,145.31 C127.00,145.62 129.25,145.85 134.78,145.99 L 128.00 146.01 L 128.00 229.00 L 133.79 229.00 C126.68,229.35 126.36,230.02 127.57,231.24 C127.89,231.55 155.52,231.84 188.98,231.86 C240.83,231.91 250.00,231.70 251.02,230.47 C251.75,229.60 248.05,229.22 227.23,229.00 L 252.76 229.00 L 251.79 233.52 C251.26,236.01 250.98,245.46 251.16,254.52 L 251.50 271.00 L 223.88 271.00 C244.35,270.77 250.71,270.41 250.45,269.74 C249.80,268.03 224.19,267.67 193.50,268.92 C178.62,269.53 161.72,269.56 149.02,269.01 C129.12,268.14 127.10,268.32 127.02,271.00 C127.01,271.03 127.35,271.06 128.00,271.08 L 128.00 353.60 C127.51,353.60 127.24,353.60 127.23,353.61 C127.08,353.67 127.22,354.41 127.55,355.26 C128.04,356.56 129.47,356.79 132.00,355.99 C132.27,355.91 142.40,355.73 154.50,355.60 C215.25,354.94 230.28,354.66 207.06,354.31 C234.47,354.39 261.07,354.38 271.25,354.29 L 286.60 354.14 C286.12,354.28 286.29,354.54 287.00,355.00 C288.92,356.24 289.73,356.24 290.50,355.00 C290.75,354.59 290.37,354.27 289.56,354.11 L 294.00 354.07 L 294.00 396.00 L 190.97 396.00 C278.09,396.00 291.86,395.80 291.39,394.57 C290.92,393.34 279.96,393.22 213.17,393.72 C170.45,394.04 125.26,394.35 112.75,394.40 C100.24,394.46 90.00,394.84 90.00,395.25 C90.00,395.66 135.27,396.00 190.67,396.00 C133.83,396.00 87.03,395.70 86.67,395.33 ZM 320.00 393.27 C319.17,392.96 318.17,392.21 317.77,391.60 C316.87,390.26 316.74,267.54 317.63,263.11 L 318.25 259.98 L 333.08 260.08 C321.81,260.22 320.29,260.60 320.67,261.58 C321.18,262.92 322.23,263.03 327.39,262.33 C333.67,261.48 384.00,261.24 387.39,262.05 C388.43,262.30 389.48,261.94 389.73,261.25 C389.85,260.90 389.00,260.64 386.61,260.45 L 393.50 260.50 L 393.79 269.71 L 394.07 278.93 L 400.53 279.13 C397.37,279.38 397.93,280.00 402.20,281.01 C407.08,282.17 408.30,282.09 410.44,280.47 C411.06,280.00 411.40,279.68 411.29,279.46 L 412.50 279.50 L 412.50 312.17 C412.45,312.26 412.40,312.46 412.34,312.75 C411.89,314.88 411.38,315.00 403.01,315.00 C396.87,315.00 394.01,314.62 393.66,313.75 C393.38,313.06 393.21,316.77 393.27,322.00 C393.37,329.64 393.46,330.19 393.74,324.79 L 394.05 318.82 L 393.79 327.29 L 393.50 336.50 L 390.14 336.60 C391.06,336.38 391.18,336.09 390.75,335.68 C390.01,334.98 386.28,334.50 381.52,334.50 C375.23,334.50 373.48,334.82 373.24,336.00 C373.14,336.53 373.33,336.87 374.17,337.07 L 374.00 337.07 L 373.98 345.29 C373.98,349.80 373.60,354.08 373.15,354.79 C372.74,355.44 371.35,355.78 368.49,355.85 C370.31,355.67 370.94,355.33 370.75,354.75 C370.50,353.98 367.99,353.39 364.17,353.20 L 358.00 352.90 L 358.00 344.65 C358.00,339.57 357.54,335.94 356.80,335.20 C356.03,334.43 352.11,334.00 345.91,334.00 C338.21,334.00 336.10,334.31 335.64,335.50 C335.15,336.77 336.58,337.00 345.03,337.00 L 336.00 337.00 L 335.78 357.25 C335.66,368.39 335.70,380.56 335.87,384.30 C336.25,393.11 335.47,394.02 327.63,393.92 C324.26,393.88 320.83,393.59 320.00,393.27 ZM 393.26 302.56 C393.57,294.07 393.58,285.29 393.28,283.06 L 392.74 279.00 L 364.93 279.00 C346.82,279.00 336.89,279.36 336.48,280.04 C335.72,281.26 335.83,315.92 336.59,317.15 C336.88,317.62 349.62,318.00 364.91,318.00 L 392.70 318.00 ZM 381.97 216.99 C385.92,216.98 390.00,216.68 390.00,216.14 C390.00,215.67 387.22,214.99 383.83,214.64 C380.44,214.29 377.54,213.87 377.39,213.72 C377.23,213.57 377.02,192.64 376.91,167.22 C376.71,120.01 376.52,117.79 372.97,120.04 C371.97,120.67 371.90,120.97 372.75,120.98 C372.77,120.98 372.79,120.99 372.81,121.00 L 354.92 121.00 L 355.08 116.01 C355.23,118.27 355.61,118.70 356.50,118.36 C358.41,117.63 358.19,106.89 356.25,106.25 C355.85,106.11 355.56,106.36 355.36,107.08 L 355.50 102.50 L 373.25 102.18 C389.85,101.89 391.00,101.98 391.01,103.68 C391.01,104.68 391.13,130.59 391.26,161.25 L 391.50 217.00 L 383.42 217.00 C382.93,217.00 382.44,217.00 381.97,216.99 ZM 338.75 234.18 C336.28,232.67 336.00,231.94 336.00,226.87 C336.00,218.77 337.48,218.00 353.02,218.00 C359.67,218.00 367.11,218.50 369.56,219.12 L 374.00 220.24 L 374.00 226.60 C374.00,232.22 373.72,233.14 371.58,234.54 C369.49,235.91 368.31,235.96 363.05,234.93 C357.58,233.85 349.05,234.05 343.50,235.39 C342.40,235.65 340.26,235.11 338.75,234.18 ZM 374.91 374.75 C374.86,374.61 374.60,371.10 374.33,366.94 L 373.84 359.38 L 377.67 357.74 C382.53,355.66 386.63,355.67 390.75,357.79 C393.85,359.38 394.00,359.72 394.00,365.22 C394.00,373.73 392.54,375.00 382.78,375.00 C378.50,375.00 374.96,374.89 374.91,374.75 ZM 401.00 392.90 C397.98,392.42 394.96,391.95 394.29,391.85 C393.46,391.72 393.15,389.56 393.29,384.95 C393.49,378.42 393.58,378.19 396.57,377.11 C399.91,375.90 407.14,375.66 410.80,376.64 C412.99,377.23 413.09,377.63 412.80,385.38 L 412.50 393.50 L 409.50 393.63 C407.85,393.70 404.02,393.37 401.00,392.90 ZM 91.49 104.69 C96.38,104.33 107.57,104.18 131.82,104.16 C110.96,104.29 96.07,104.47 91.49,104.69 ZM 355.67 355.33 C355.73,355.40 355.90,355.46 356.16,355.52 L 355.50 355.50 L 355.48 354.78 C355.54,355.08 355.60,355.27 355.67,355.33 ZM 355.00 339.41 L 354.92 337.00 L 355.00 337.00 L 355.00 339.41 Z" fill="rgba(56,255,19,1)"/>
<path d="M 90.00 395.25 C90.00,394.84 100.24,394.46 112.75,394.40 C125.26,394.35 170.45,394.04 213.17,393.72 C279.96,393.22 290.92,393.34 291.39,394.57 C291.86,395.80 278.09,396.00 190.97,396.00 C135.44,396.00 90.00,395.66 90.00,395.25 ZM 86.00 251.50 C86.00,156.68 86.34,109.09 87.00,109.50 C88.38,110.36 88.38,392.64 87.00,393.50 C86.34,393.91 86.00,346.32 86.00,251.50 ZM 127.55 355.26 C127.22,354.41 127.08,353.67 127.23,353.61 C127.38,353.55 151.35,353.73 180.50,354.01 C235.04,354.54 231.44,354.76 154.50,355.60 C142.40,355.73 132.27,355.91 132.00,355.99 C129.47,356.79 128.04,356.56 127.55,355.26 ZM 287.00 355.00 C285.84,354.25 286.13,354.03 288.31,354.02 C289.93,354.01 290.86,354.42 290.50,355.00 C289.73,356.24 288.92,356.24 287.00,355.00 ZM 355.67 355.33 C355.30,354.97 355.00,350.69 355.00,345.83 L 355.00 337.00 L 345.03 337.00 C336.58,337.00 335.15,336.77 335.64,335.50 C336.10,334.31 338.21,334.00 345.91,334.00 C352.11,334.00 356.03,334.43 356.80,335.20 C357.54,335.94 358.00,339.57 358.00,344.65 L 358.00 352.90 L 364.17 353.20 C367.99,353.39 370.50,353.98 370.75,354.75 C371.06,355.67 369.24,356.00 363.75,356.00 C359.67,356.00 356.03,355.70 355.67,355.33 ZM 373.24 336.00 C373.48,334.82 375.23,334.50 381.52,334.50 C386.28,334.50 390.01,334.98 390.75,335.68 C391.72,336.60 389.85,336.93 382.48,337.18 C374.43,337.45 372.99,337.27 373.24,336.00 ZM 393.27 322.00 C393.21,316.77 393.38,313.06 393.66,313.75 C394.01,314.62 396.87,315.00 403.01,315.00 C411.38,315.00 411.89,314.88 412.34,312.75 C412.60,311.51 412.74,312.08 412.65,314.00 L 412.50 317.50 L 403.29 317.79 L 394.09 318.07 L 393.74 324.79 C393.46,330.19 393.37,329.64 393.27,322.00 ZM 402.20 281.01 C396.49,279.66 397.42,279.00 405.02,279.00 C411.71,279.00 412.20,279.13 410.44,280.47 C408.30,282.09 407.08,282.17 402.20,281.01 ZM 127.02 271.00 C127.10,268.32 129.12,268.14 149.02,269.01 C161.72,269.56 178.62,269.53 193.50,268.92 C224.19,267.67 249.80,268.03 250.45,269.74 C250.82,270.71 237.64,271.03 188.96,271.24 C154.88,271.38 127.01,271.27 127.02,271.00 ZM 320.67 261.58 C320.12,260.16 323.56,260.00 355.11,260.00 C382.72,260.00 390.07,260.27 389.73,261.25 C389.48,261.94 388.43,262.30 387.39,262.05 C384.00,261.24 333.67,261.48 327.39,262.33 C322.23,263.03 321.18,262.92 320.67,261.58 ZM 127.57 231.24 C125.01,228.68 129.27,228.51 189.61,228.76 C244.04,229.00 252.06,229.22 251.02,230.47 C250.00,231.70 240.83,231.91 188.98,231.86 C155.52,231.84 127.89,231.55 127.57,231.24 ZM 374.67 216.33 C374.30,215.97 374.00,194.37 374.00,168.33 C374.00,131.14 373.73,121.00 372.75,120.98 C371.90,120.97 371.97,120.67 372.97,120.04 C376.52,117.79 376.71,120.01 376.91,167.22 C377.02,192.64 377.23,213.57 377.39,213.72 C377.54,213.87 380.44,214.29 383.83,214.64 C387.22,214.99 390.00,215.67 390.00,216.14 C390.00,217.14 375.65,217.32 374.67,216.33 ZM 127.00 145.31 C127.00,144.65 127.40,143.87 127.89,143.57 C128.37,143.27 165.94,143.01 211.36,142.99 L 293.94 142.96 L 294.27 129.23 L 294.59 115.50 L 294.54 130.50 L 294.50 145.50 L 210.75 146.00 C146.35,146.38 127.00,146.22 127.00,145.31 ZM 355.00 112.39 C355.00,107.59 355.34,105.94 356.25,106.25 C358.19,106.89 358.41,117.63 356.50,118.36 C355.26,118.84 355.00,117.80 355.00,112.39 ZM 90.75 106.47 C90.34,106.03 90.00,105.29 90.00,104.83 C90.00,104.38 135.75,104.00 191.67,104.00 C247.58,104.00 293.06,104.28 292.72,104.62 C292.38,104.96 284.99,105.44 276.30,105.70 C267.61,105.95 258.92,106.21 257.00,106.27 C255.07,106.33 237.75,106.26 218.50,106.13 C199.25,106.00 162.80,106.20 137.50,106.58 C112.20,106.96 91.16,106.91 90.75,106.47 Z" fill="rgba(60,255,23,1)"/>
</g>
</svg>